<svg id="Capa_1" enable-background="new 0 0 512 512" height="512" viewBox="0 0 512 512" width="512" xmlns="http://www.w3.org/2000/svg"><g><g><g><g><g><g><g><circle cx="256" cy="256" fill="#ff583e" r="256"/></g></g></g></g></g></g><path d="m127.889 382.929 129.505 129.067c140.743-.75 254.606-115.076 254.606-255.996 0-13.242-1.005-26.248-2.944-38.948l-114.392-114.392z" fill="#db0404"/><g><g><g><g><g><g><ellipse cx="256" cy="256" fill="#fff" rx="180.343" ry="180.343" transform="matrix(.707 -.707 .707 .707 -106.039 256)"/></g></g></g></g></g></g><g><g><g><g><g><g><path d="m436.343 256c0-99.437-80.477-180.071-179.851-180.336v360.673c99.373-.266 179.851-80.9 179.851-180.337z" fill="#e9edf5"/></g></g></g></g></g></g><g><g><g><g><g><g><path d="m256.491 406.672v-30c66.048 0 120.181-54.133 120.181-120.672h30c.001 83.081-67.591 150.672-150.181 150.672z" fill="#cdd2e1"/></g><g><path d="m135.328 256h-30c0-83.081 67.591-150.672 151.163-150.672v30c-67.03 0-121.163 54.133-121.163 120.672z" fill="#e9edf5"/></g></g></g></g></g></g><g><path d="m256 168.545c-48.3 0-87.455 39.155-87.455 87.455s39.155 87.455 87.455 87.455 87.455-39.155 87.455-87.455-39.155-87.455-87.455-87.455zm0 13.54c6.058 0 10.968 4.911 10.968 10.968 0 6.058-4.911 10.968-10.968 10.968-6.058 0-10.968-4.911-10.968-10.968s4.91-10.968 10.968-10.968zm-62.947 84.883c-6.057 0-10.968-4.911-10.968-10.968 0-6.058 4.911-10.968 10.968-10.968 6.058 0 10.968 4.911 10.968 10.968 0 6.058-4.91 10.968-10.968 10.968zm62.947 62.947c-6.058 0-10.968-4.911-10.968-10.968s4.911-10.968 10.968-10.968c6.058 0 10.968 4.911 10.968 10.968s-4.91 10.968-10.968 10.968zm0-51.745c-12.244 0-22.17-9.926-22.17-22.17s9.926-22.17 22.17-22.17 22.17 9.926 22.17 22.17-9.926 22.17-22.17 22.17zm62.947-11.202c-6.058 0-10.968-4.911-10.968-10.968 0-6.058 4.911-10.968 10.968-10.968s10.968 4.911 10.968 10.968c0 6.058-4.911 10.968-10.968 10.968z" fill="#636978"/></g><g><path d="m343.455 256c0-48.136-38.89-87.184-86.964-87.449v13.559c5.828.259 10.477 5.052 10.477 10.943 0 5.892-4.649 10.685-10.477 10.943v29.847c12.016.262 21.678 10.078 21.678 22.157s-9.662 21.895-21.678 22.157v29.847c5.828.259 10.477 5.052 10.477 10.943 0 5.892-4.649 10.685-10.477 10.943v13.559c48.074-.265 86.964-39.313 86.964-87.449zm-35.476 0c0-6.058 4.911-10.968 10.968-10.968s10.968 4.911 10.968 10.968-4.911 10.968-10.968 10.968c-6.058 0-10.968-4.91-10.968-10.968z" fill="#414952"/></g><g><path d="m388.136 228.895h72.845c-11.62-88.723-79.491-159.738-166.641-176.082v73.858c47.335 14.011 83.811 53.296 93.796 102.224z" fill="#414952"/></g></g></svg>