<?xml version="1.0" encoding="utf-8"?>
<!-- Generator: Adobe Illustrator 24.1.1, SVG Export Plug-In . SVG Version: 6.00 Build 0)  -->
<svg version="1.1" id="Layer_1" xmlns="http://www.w3.org/2000/svg" xmlns:xlink="http://www.w3.org/1999/xlink" x="0px" y="0px"
	 viewBox="0 0 540.3488 234.5906" enable-background="new 0 0 540.3488 234.5906" xml:space="preserve">
<g>
	<path d="M314.4526,180.5715c-5.3889,0-10.552-1.7073-14.8386-4.8499v0.4788v23.8234c0,1.5201,1.2322,2.7523,2.7522,2.7523h25.0974
		c1.52,0,2.7522-1.2322,2.7522-2.7523v-19.0677v-0.3845H314.4526z"/>
	<path d="M518.9758,180.5715h-15.7615v0.3845v19.0677c0,1.5201,1.2324,2.7523,2.7524,2.7523h25.0972
		c1.52,0,2.7524-1.2322,2.7524-2.7523v-23.8242v-0.4786C529.5293,178.8638,524.3655,180.5715,518.9758,180.5715z"/>
	<path d="M536.6086,48.8394h-24.5483l-20.4272-37.249C488.1218,5.1875,481.45,1.1563,474.1492,1.0259L416.7146,0l-57.4341,1.0259
		c-7.3013,0.1304-13.9727,4.1616-17.4839,10.5645l-20.4272,37.249H296.822c-4.9873,0-4.9873,18.1348,0,18.1348h14.6025
		l-10.377,18.9229c-4.0166,7.3242-6.1221,15.5425-6.1221,23.896v45.6362c0,5.3618,2.2051,10.4878,6.0977,14.1758
		c3.627,3.436,8.4331,5.3511,13.4297,5.3511h102.2617h102.2622c4.9966,0,9.8027-1.915,13.4297-5.3511
		c3.8926-3.688,6.0977-8.814,6.0977-14.1758V109.793c0-8.3535-2.1055-16.5718-6.1221-23.896l-10.377-18.9229h14.6035
		C541.5955,66.9741,541.5955,48.8394,536.6086,48.8394z M320.6018,69.7039l29.4011-53.6132c1.897-3.4594,5.502-5.6375,9.4465-5.7079
		l57.2649-1.0217l57.2681,1.0217c3.9438,0.0704,7.5479,2.248,9.4443,5.7065l29.4019,53.6145
		c1.3096,2.3882-0.4185,5.3066-3.1421,5.3066H323.7439C321.0203,75.0105,319.2922,72.092,320.6018,69.7039z M311.3794,98.9021
		c0.3638-6.3082,5.7747-11.125,12.0811-10.7603c1.4954,0.0869,2.9412,0.4762,4.219,1.0748l26.7412,12.6129
		c2.8516,1.3445,4.0745,4.7473,2.7292,7.5989c-1.0237,2.1689-3.2393,3.3927-5.4949,3.2646l-29.5161-1.709
		C315.8306,110.6184,311.0139,105.2095,311.3794,98.9021z M452.1123,160.4316c0,1.0944-0.8872,1.9817-1.9814,1.9817h-66.8313
		c-1.0945,0-1.9817-0.8873-1.9817-1.9817v-12.8591c0-1.0945,0.8872-1.9817,1.9817-1.9817h66.8313
		c1.0942,0,1.9814,0.8872,1.9814,1.9817V160.4316z M515.5098,109.9102c-1.3545,0.6389-2.8096,0.988-4.219,1.074l-29.5161,1.709
		c-3.1477,0.1819-5.8477-2.2218-6.0305-5.3696c-0.1389-2.3937,1.2229-4.5287,3.2649-5.4939l26.7412-12.6129
		c5.7141-2.6953,12.5305-0.2487,15.2268,5.4666C523.6714,100.3975,521.2239,107.2148,515.5098,109.9102z"/>
	<rect x="401.981" y="13.6008" width="29.4685" height="7.4187"/>
	<rect x="8.1467" y="192.4167" width="78.8257" height="12.7706"/>
	<path d="M67.4055,59.0525c9.1411,0,16.551-7.4098,16.551-16.551c0-9.1404-7.4099-16.5502-16.551-16.5502
		c-9.1404,0-16.5503,7.4098-16.5503,16.5502C50.8552,51.6427,58.2651,59.0525,67.4055,59.0525z M59.7441,30.0898l1.0745,1.8613
		l0.7444-0.4297l-1.0828-1.8748c1.9419-1.0486,4.1514-1.6561,6.4963-1.7246v4.0302h0.8594v-4.0302
		c2.345,0.0685,4.5542,0.676,6.4961,1.7244l-1.0825,1.8757l0.7437,0.4297l1.0757-1.8621c1.9294,1.1938,3.5557,2.8201,4.7495,4.7498
		l-1.8618,1.075l0.4297,0.7445l1.8752-1.0829c1.0483,1.9418,1.6555,4.1509,1.7241,6.4956h-4.0298l-0.0007,0.8597l4.0305-0.0004
		c-0.0686,2.3451-0.676,4.5546-1.7244,6.4963l-1.875-1.082l-0.4297,0.7437l1.8616,1.075c-2.573,4.1589-7.1621,6.9387-12.4119,6.9387
		c-5.2495,0-9.8386-2.7798-12.4116-6.9387l1.8606-1.075l-0.4297-0.7437l-1.8743,1.0819c-1.0483-1.9418-1.6558-4.1511-1.7244-6.4962
		l4.0298,0.0004l-0.0007-0.8597l-4.0291,0.0004c0.0684-2.3448,0.676-4.5541,1.7244-6.4958l1.8743,1.0819l0.4297-0.744
		l-1.8611-1.0741C56.188,32.9103,57.8145,31.2838,59.7441,30.0898z"/>
	<rect x="64.2186" y="40.0541" transform="matrix(0.8675 -0.4974 0.4974 0.8675 -10.7692 40.63)" width="13.3402" height="0.9548"/>
	<path d="M232.6858,142.5078c-0.9292-2.2494-2.4915-4.2117-4.5549-5.6013c-3.1123-2.0967-7.002-2.6826-10.5947-1.5996
		l-3.9927,1.2051l2.1836,2.5342L232.6858,142.5078z"/>
	<path d="M149.6279,188.7234c-6.8853,0.5015-12.0601,6.4902-11.5581,13.3755c0.479,6.5762,5.9629,11.5923,12.4536,11.5918
		c0.3052,0,0.6128-0.0112,0.9219-0.0337l61.75-4.5c5.4297-0.3955,9.979-4.2603,11.2471-9.5547
		c1.2686-5.2944-1.0356-10.8008-5.6968-13.6138l-38.9355-23.5l2.1104-1.4126l12.2522,7.395l15.9358-4.8091l1.4121,15.2793
		l8.4136,5.0781c5.543,3.3452,8.2534,9.8228,6.7451,16.1191c-1.2583,5.2524-5.1956,9.2772-10.2139,10.7434
		c2.3071,2.9485,5.8901,4.8093,9.834,4.8093c0.3853,0,0.7734-0.0181,1.1646-0.0542c6.8745-0.6348,11.9321-6.7227,11.2969-13.5967
		l-3.5095-37.9844l-27.0906-5.5293c-2.2227-0.4531-4.2627-1.6494-5.7432-3.3682l-10.4551-12.1339l-9.6667,2.9171
		c0.2178-0.8716,0.4409-1.7407,0.6746-2.6062c0.7314-2.7113,1.531-5.3876,2.3655-8.0015l-14.4592-16.781
		c-3.707-4.3032-3.2227-10.8193,1.0801-14.5269c1.8691-1.6104,4.2559-2.4971,6.7197-2.4971c3.0029,0,5.8477,1.3037,7.8057,3.5771
		l6.7034,7.7795c2.4485-8.7725,0.0471-18.6892-7.1252-21.6245c-8.1423-3.334-21.0552-0.5239-28.1428,13.2429
		c-9.6335,18.9863-12.9685,31.7705-13.6023,54.1265c0.5254,11.0044,5.5188,16.0667,11.4932,18.5713l1.0623,0.6414l15.304,9.2371
		L149.6279,188.7234z"/>
	<path d="M202.9751,98.8728c11.0254,5.735,24.6082,1.447,30.3433-9.5785c5.7339-11.0236,1.448-24.6085-9.5771-30.3436
		c-11.0237-5.734-24.6101-1.4454-30.3442,9.5781C187.6621,79.5542,191.9514,93.1387,202.9751,98.8728z"/>
	<path d="M258.9326,203.4041c-1.2441-2.9912-2.7334-6.2744-4.3096-9.751c-4.3604-9.6184-9.5327-21.035-9.8665-27.657l-1.9851-0.4053
		c0.1111,7.0044,5.1323,18.0825,10.0303,28.8875c1.5693,3.4619,3.0518,6.7314,4.2852,9.6943
		c1.6748,4.0234,1.6357,7.2197-0.1201,9.7715c-6.1846,8.9893-33.0742,8.9805-60.1152,8.1973
		c-19.0098,0.0498-34.6377,0.6592-45.3291,1.7637c-9.4121-2.4893-17.1123-6.8965-23.2803-13.2871
		c-20.4629-21.1992-19.082-60.2168-17.9727-91.5674c0.792-22.3887,1.418-40.0713-5.4531-47.0293
		c-1.6362-1.6572-3.6812-2.6161-6.0642-2.916V58.7654h-3.6331V11.4259H0v175.8165h95.1191V82.2148h3.6331V71.0951
		c1.8394,0.2657,3.3689,1.0428,4.6404,2.3314c6.2656,6.3438,5.623,24.5137,4.8779,45.5527
		c-1.1221,31.7295-2.5195,71.2168,18.5322,93.0273c5.3848,5.5781,12.0518,9.7412,19.9473,12.4688
		c-11.3848,1.5801-11.3828,3.4521-11.3809,4.3945c0.0068,5.5605,32.7998,5.7207,36.5391,5.7207
		c17.3486,0,35.5996-1.3311,37.2666-4.3066c0.2666-0.4736,0.2568-1.0107-0.0264-1.4717
		c-2.0977-3.4268-26.4912-2.8672-36.8447-2.4678c-4.9941,0-9.6572-0.3398-14.002-1.0244
		c9.0449-0.6602,21.5527-1.1348,38.5234-1.1787c28.7031,0.8252,55.0303,0.7607,61.7891-9.0635
		C260.7549,211.9656,260.8623,208.0378,258.9326,203.4041z M51.4961,34.2615c4.5435-8.7726,15.3767-12.2133,24.1494-7.6698
		c8.7729,4.5436,12.2141,15.3771,7.6707,24.1498c-4.5437,8.7729-15.3774,12.2139-24.1506,7.6702
		C50.3931,53.8682,46.9526,43.0347,51.4961,34.2615z M32.52,22.2686h6.7344v6.7344H32.52V22.2686z M32.52,33.4924h6.7344v6.7345
		H32.52V33.4924z M32.52,44.7166h6.7344v6.7344H32.52V44.7166z M32.52,55.9407h6.7344v6.7344H32.52V55.9407z M21.2959,22.2686
		h6.7344v6.7344h-6.7344V22.2686z M21.2959,33.4924h6.7344v6.7345h-6.7344V33.4924z M21.2959,44.7166h6.7344v6.7344h-6.7344V44.7166
		z M21.2959,55.9407h6.7344v6.7344h-6.7344V55.9407z M10.0718,22.2686h6.7344v6.7344h-6.7344V22.2686z M10.0718,33.4924h6.7344
		v6.7345h-6.7344V33.4924z M10.0718,44.7166h6.7344v6.7344h-6.7344V44.7166z M10.0718,55.9407h6.7344v6.7344h-6.7344V55.9407z
		 M86.532,136.0498H10.2383v-3.9634H86.532V136.0498z M172.3418,228.3435c23.5215-0.9063,32.3389,0.4053,34.5801,1.2588
		c-2.5029,1.127-12.9814,2.9883-35.0137,2.9883c-22.0928,0-33.0674-2.3545-34.4619-3.7236
		c0.8184-0.834,4.7949-1.9941,14.0781-2.9561C157.7881,227.53,164.7354,228.3445,172.3418,228.3435z"/>
	<path d="M267.7834,172.0317l3.9082,2.2288l0.677-1.1868l19.1235,10.9055l1.002,2.6807l1.873-0.7012l-1.2559-3.3584
		l-19.7517-11.2644l0.6772-1.1875l-3.26-1.8594C270.0859,169.7628,269.0671,171.0388,267.7834,172.0317z"/>
	<path d="M253.1938,165.3708l1.2041,2.2754c1.4355,2.7119,4.209,4.2588,7.0771,4.2583c1.2617,0,2.543-0.2998,3.7363-0.9312
		c3.9053-2.0674,5.3945-6.9087,3.3271-10.8135l-2.9727-5.6147c-1.1191-2.1143-3.126-3.6167-5.4707-4.0952l-45.5977-9.3071
		l-29.7578-34.5356c-2.8828-3.3467-7.9336-3.7231-11.2822-0.8384c-3.3477,2.8843-3.7227,7.9355-0.8389,11.2827l31.541,36.6055
		c1.1563,1.3418,2.7256,2.2622,4.4609,2.6162L253.1938,165.3708z"/>
</g>
</svg>
